<svg width="49" height="49" viewBox="0 0 49 49" fill="none" xmlns="http://www.w3.org/2000/svg">
<mask id="mask0_35_7" style="mask-type:alpha" maskUnits="userSpaceOnUse" x="0" y="0" width="49" height="49">
<rect x="0.40506" y="0.147682" width="48" height="48" fill="#D9D9D9"/>
</mask>
<g mask="url(#mask0_35_7)">
<path d="M22.0051 31.4477L31.0551 25.6477C31.6217 25.2647 31.9051 24.7607 31.9051 24.1355C31.9051 23.5103 31.6217 23.0143 31.0551 22.6477L22.0051 16.8477C21.4384 16.481 20.8384 16.4703 20.2051 16.8155C19.5717 17.1608 19.2551 17.6715 19.2551 18.3477V29.8977C19.2551 30.6215 19.5717 31.1524 20.2051 31.4905C20.8384 31.8286 21.4384 31.8143 22.0051 31.4477ZM24.412 45.3977C21.474 45.3977 18.7136 44.8463 16.1307 43.7435C13.5478 42.6407 11.2908 41.1238 9.35986 39.1929C7.42889 37.2619 5.91203 35.0073 4.80926 32.4289C3.70646 29.8506 3.15506 27.0925 3.15506 24.1546C3.15506 21.1833 3.70646 18.4062 4.80926 15.8233C5.91203 13.2404 7.42628 10.9909 9.35201 9.07488C11.2777 7.15881 13.531 5.64193 16.1118 4.52423C18.6925 3.40653 21.4533 2.84768 24.394 2.84768C27.368 2.84768 30.1485 3.40524 32.7354 4.52038C35.3222 5.63548 37.5724 7.14884 39.486 9.06048C41.3995 10.9721 42.9144 13.2201 44.0307 15.8043C45.1469 18.3886 45.7051 21.1697 45.7051 24.1477C45.7051 27.0902 45.1462 29.8527 44.0285 32.435C42.9108 35.0174 41.3939 37.272 39.4779 39.1989C37.5618 41.1259 35.3146 42.6407 32.7363 43.7435C30.158 44.8463 27.3832 45.3977 24.412 45.3977Z" fill="white"/>
</g>
</svg>
